<?xml version="1.0" encoding="UTF-8" standalone="no"?>
<svg
   xmlns:dc="http://purl.org/dc/elements/1.1/"
   xmlns:cc="http://creativecommons.org/ns#"
   xmlns:rdf="http://www.w3.org/1999/02/22-rdf-syntax-ns#"
   xmlns:svg="http://www.w3.org/2000/svg"
   xmlns="http://www.w3.org/2000/svg"
   xmlns:sodipodi="http://sodipodi.sourceforge.net/DTD/sodipodi-0.dtd"
   xmlns:inkscape="http://www.inkscape.org/namespaces/inkscape"
   sodipodi:docname="half-lion-ink.svg"
   inkscape:version="1.0beta2 (2b71d25, 2019-12-03)"
   id="svg8"
   version="1.1"
   viewBox="0 0 210 297"
   height="297mm"
   width="210mm">
   <style>
      path {
         transition: 2s;
      }
      path:hover {
         fill: maroon !important; 
         transition: 0s;
      }
      path:press {
         fill: maroon !important;
         transition: 0s;
      }
   </style>
  <defs
     id="defs2" />
  <sodipodi:namedview
     inkscape:window-maximized="0"
     inkscape:window-y="23"
     inkscape:window-x="0"
     inkscape:window-height="855"
     inkscape:window-width="1440"
     inkscape:snap-global="false"
     showgrid="false"
     inkscape:document-rotation="0"
     inkscape:current-layer="svg8"
     inkscape:document-units="mm"
     inkscape:cy="561.25984"
     inkscape:cx="396.85039"
     inkscape:zoom="0.40331695"
     inkscape:pageshadow="2"
     inkscape:pageopacity="0.0"
     borderopacity="1.0"
     bordercolor="#666666"
     pagecolor="#ffffff"
     id="base" />
  <metadata
     id="metadata5">
    <rdf:RDF>
      <cc:Work
         rdf:about="">
        <dc:format>image/svg+xml</dc:format>
        <dc:type
           rdf:resource="http://purl.org/dc/dcmitype/StillImage" />
        <dc:title></dc:title>
      </cc:Work>
    </rdf:RDF>
  </metadata>
  <g
     id="layer1"
     inkscape:groupmode="layer"
     inkscape:label="Layer 1" />
  <path
     inkscape:connector-curvature="0"
     d="m 153.79332,51.818881 c -2.31031,-0.07324 -4.60762,0.322028 -6.89438,0.672612 -2.20251,0.370759 -4.42324,1.033344 -6.32562,2.592604 -2.55291,1.997313 -4.70376,5.146413 -5.51976,8.977387 -0.58649,4.455705 1.67927,9.35326 5.01809,10.531058 1.47415,0.0584 2.92689,-0.765719 4.40119,-0.265787 0.88758,0.226665 1.74587,0.733787 2.42997,1.529588 -1.37239,-2.454037 -2.79606,-5.19365 -2.80223,-8.355811 0.10786,-5.322848 3.07673,-10.04189 6.79697,-11.761678 1.27409,-0.581163 2.77802,-0.940126 4.03816,-0.08242 0.98136,0.800777 1.52884,2.454294 1.2683,3.936901 0.64144,0.506577 1.22354,-0.415713 1.53096,-1.060005 1.15375,-2.026621 0.42562,-5.580954 -1.52907,-6.224449 -0.78646,-0.29268 -1.59996,-0.431712 -2.41258,-0.490003 z"
     style="fill:#000000;fill-rule:nonzero;stroke-width:0.298561"
     id="path34301" />
  <path
     inkscape:connector-curvature="0"
     d="m 157.78651,56.63125 c 0.005,-0.18962 0.008,-0.320877 0,0 z m -0.0682,1.28783 c 0.01,-0.162804 0.011,-0.177549 0,0 z m -0.0688,0.824327 c 0.0155,-0.170287 0.0132,-0.144395 0,0 z m -0.22493,1.647721 c -0.88842,2.841731 -3.79287,4.091815 -5.81399,2.541439 -2.12114,-0.532814 -4.02839,2.653574 -3.31419,5.297591 0.22298,1.573791 0.61166,3.381586 -0.083,4.834448 -0.0248,0.330364 -0.54526,0.181067 -0.35835,0.465865 0.99531,0.541431 2.11688,0.107597 3.07347,-0.365746 2.06233,-0.995463 3.44404,-3.440452 4.3914,-5.9519 0.74779,-2.044516 1.46655,-4.120999 2.00942,-6.280406 0.0462,-0.192528 0.26118,-1.200346 0.0953,-0.541283 z m -9.67556,12.945153 c -0.006,0.08712 0.0188,-0.04065 0,0 z"
     style="fill:#000000;fill-rule:nonzero;stroke-width:0.298561"
     id="path34306" />
  <path
     inkscape:connector-curvature="0"
     d="m 38.708715,144.32794 c -2.798067,0.0586 -5.854892,0.90027 -7.616674,3.22189 -1.34853,2.07211 -0.991846,4.65574 -0.9904,6.99754 -0.03483,4.98521 -1.466892,9.94462 -0.703114,14.93067 0.231878,1.13378 0.440153,2.36853 1.179328,3.29326 0.56384,0.66691 1.620302,0.65879 2.200485,0.017 0.89705,-0.86652 1.25893,-2.11341 1.988269,-3.10659 2.302596,-3.81461 4.430927,-7.80186 5.558899,-12.13801 0.534996,-1.49361 1.874412,-2.93114 3.580453,-2.81657 2.89335,-0.0718 5.692324,1.51335 8.589863,0.81765 1.214406,-0.52488 1.294616,-2.06465 1.101562,-3.19531 -0.538097,-3.56251 -3.583781,-6.33011 -6.961778,-7.25717 -2.566053,-0.7621 -5.272898,-0.78456 -7.926893,-0.76432 z m -3.521485,25.18946 0.0098,-0.0391 z m -0.394531,2.05664 -0.01172,-0.0293 z m -0.289063,6.17969 0.01367,-0.041 z"
     style="fill:#000000;fill-rule:nonzero;stroke-width:0.342382"
     id="path34311" />
  <path
     inkscape:connector-curvature="0"
     d="m 112.86402,106.31443 c -0.79581,-0.49408 -1.71589,1.05363 -1.93571,2.12936 -1.60169,6.13329 -3.56316,12.5786 -7.21018,17.53854 -4.367554,5.96031 -10.404091,8.72419 -15.600941,8.36966 -5.745597,-0.16194 -10.732661,-3.03816 -16.123763,-4.45056 -0.606106,-0.0863 -1.617678,0.1164 -1.852027,1.21527 -0.04688,1.6324 1.15213,2.14659 1.760915,3.14694 4.375451,5.06114 10.562168,6.78217 16.812302,6.81256 6.054384,-0.0595 12.724334,-2.51801 18.326604,-8.25742 5.42468,-5.89527 8.46302,-16.04259 6.96704,-23.67384 -0.22722,-1.06829 -0.52493,-2.15966 -1.14426,-2.83046 z"
     style="fill:#000000;fill-rule:nonzero;stroke-width:0.323092"
     id="path34359" />
  <path
     id="path34359-0"
     style="fill:#000000;fill-rule:nonzero;stroke-width:0.448497"
     d="m 119.53169,88.357083 c -0.54351,1.8548 0.55828,3.671903 1.72135,5.033587 5.34878,7.52524 10.69272,15.25121 13.7386,24.04472 2.35198,6.98923 2.84643,14.78217 0.42209,21.8221 -2.96775,7.44047 -8.39003,13.67727 -10.81738,21.36172 -3.75783,9.64504 -6.80728,19.59758 -11.4963,28.85525 -0.66981,0.67739 -1.8046,1.27851 -1.64649,2.39453 0.45611,2.34866 3.49774,3.89814 5.57813,2.56055 2.24683,-2.20291 2.94297,-5.38449 4.30042,-8.12073 3.56919,-8.58254 6.27274,-17.61865 11.30895,-25.51013 3.36555,-4.80801 7.62986,-9.09417 9.85834,-14.61305 4.34465,-10.37016 3.99175,-22.34203 0.0956,-32.78998 -3.62233,-9.77979 -10.40364,-18.522782 -19.451,-23.828894 -1.10669,-0.613268 -2.29021,-1.126648 -3.54782,-1.322954 -0.0215,0.03776 -0.043,0.07552 -0.0644,0.113281 z"
     inkscape:connector-curvature="0" />
  <path
     inkscape:connector-curvature="0"
     d="m 126.20668,79.292599 c -7.57145,0.159715 -15.31804,0.878202 -22.33203,3.939453 -0.81612,0.496531 -1.57706,1.097458 -2.1836,1.839844 2.38769,1.17097 5.08278,0.338036 7.6119,0.560055 8.65394,-0.0064 17.46556,-0.289552 25.90072,1.976233 6.26869,1.671707 12.14231,5.43199 15.67426,10.952802 2.504,3.910664 3.11129,8.755724 2.65702,13.303014 -0.28762,2.81071 -1.05485,5.54018 -1.59694,8.30688 -0.90586,4.28709 -1.78902,8.65856 -1.53104,13.05988 0.63814,1.81906 3.72349,1.59475 4.16299,-0.25633 3.56256,-6.65852 6.02818,-13.90844 7.26491,-21.35687 0.99608,-9.03203 -2.9374,-18.379551 -9.96125,-24.113256 -6.11587,-5.226061 -14.144,-7.928021 -22.13571,-8.136851 -1.17574,-0.06395 -2.35388,-0.083 -3.53123,-0.07485 z"
     style="fill:#000000;fill-rule:nonzero;stroke-width:0.382429"
     id="path34359-0-1" />
  <path
     id="path34359-0-1-3"
     style="fill:#000000;fill-rule:nonzero;stroke-width:0.232528"
     d="m 90.956404,162.85812 c 0.949104,-0.0418 1.438031,-0.98353 1.352121,-1.5062 -0.13633,-3.08952 0.003,-6.42368 2.277978,-9.66124 2.718935,-3.88579 8.048677,-6.94832 13.422077,-8.43204 5.87471,-1.73739 11.75934,-2.09188 17.63349,-3.19059 0.63959,-0.1541 1.60752,-0.55747 1.52971,-1.09447 -0.4212,-0.70303 -1.78505,-0.54304 -2.68981,-0.77354 -5.89159,-0.75901 -12.66142,0.45959 -19.01014,2.411 -6.124384,1.92781 -12.184331,5.06063 -16.219137,9.24134 -3.809909,4.19061 -3.978339,9.42417 -0.26969,12.17182 0.537217,0.37904 1.152584,0.74567 1.973411,0.83389 z"
     inkscape:connector-curvature="0" />
  <path
     transform="matrix(0.99980887,0.01955043,-0.02704439,0.99963423,0,0)"
     sodipodi:open="true"
     d="m 56.526421,171.62936 a 9.8958282,1.6238558 0 0 1 -9.457406,1.62227 9.8958282,1.6238558 0 0 1 -10.295403,-1.47852 9.8958282,1.6238558 0 0 1 8.545155,-1.75327 9.8958282,1.6238558 0 0 1 11.052568,1.32316"
     sodipodi:arc-type="arc"
     sodipodi:end="6.1059122"
     sodipodi:start="0"
     sodipodi:ry="1.6238558"
     sodipodi:rx="9.8958282"
     sodipodi:cy="171.62936"
     sodipodi:cx="46.630592"
     sodipodi:type="arc"
     id="path34411"
     style="fill:#000000;fill-rule:nonzero;stroke-width:0.171796" />
  <path
     inkscape:connector-curvature="0"
     d="m 46.015308,175.84857 c -3.217007,0.45245 -6.498266,1.65056 -8.570458,4.22348 -0.920263,1.21256 -0.847253,3.27713 0.507503,4.26147 1.737598,1.51626 4.142136,1.69917 6.26635,1.51586 3.514248,-0.31545 6.908905,-1.51135 9.826318,-3.40644 0.958624,-0.73411 1.831406,-1.99784 1.360581,-3.30393 -0.630494,-1.63811 -2.351113,-2.48119 -3.91102,-2.92087 -1.789072,-0.5429 -3.669327,-0.58303 -5.479274,-0.36957 z"
     style="fill:#000000;fill-rule:nonzero;stroke-width:0.305927"
     id="path34411-0" />
  <path
     style="fill:#000000;fill-rule:nonzero;stroke-width:0.207693"
     id="path34411-7"
     sodipodi:type="arc"
     sodipodi:cx="-13.173368"
     sodipodi:cy="182.29358"
     sodipodi:rx="10.067006"
     sodipodi:ry="2.3330183"
     sodipodi:start="0"
     sodipodi:end="6.1059122"
     sodipodi:arc-type="arc"
     d="m -3.1063623,182.29358 a 10.067006,2.3330183 0 0 1 -9.6209997,2.33073 10.067006,2.3330183 0 0 1 -10.473493,-2.12421 10.067006,2.3330183 0 0 1 8.692969,-2.51895 10.067006,2.3330183 0 0 1 11.2437558,1.90101"
     sodipodi:open="true"
     transform="matrix(0.7366801,-0.6762414,0.37218467,0.9281587,0,0)" />
  <path
     inkscape:connector-curvature="0"
     d="m 38.550613,188.51737 c 5.198414,-1.35313 10.396833,-2.70625 15.595247,-4.05938 -0.600992,-2.09955 -1.201991,-4.19909 -1.802982,-6.29862 -5.619985,0.48088 -11.239966,0.96177 -16.859951,1.44266 1.022567,2.97178 2.045128,5.94354 3.067681,8.91534 z"
     style="fill:#000000;fill-rule:nonzero;stroke-width:0.305886"
     id="rect34446" />
  <path
     id="path34466-9"
     style="fill:#000000;fill-rule:nonzero;stroke-width:0.185774"
     d="m 62.248984,159.54703 c -2.456238,1.4149 -5.080449,2.74637 -7.907685,2.83189 -1.782818,0.006 -3.601272,-0.48699 -5.070884,-1.61529 -0.453284,-0.9016 0.531951,-2.01935 1.389624,-1.71959 2.599237,0.32809 5.17231,1.32128 7.814736,0.92118 0.707341,-0.11089 1.397306,-0.32993 2.062891,-0.61067 -0.564854,-0.68746 -1.484734,-0.46739 -2.227604,-0.64426 -0.305983,-0.0571 -0.607202,-0.14071 -0.905004,-0.2356 1.812579,0.18605 3.633974,0.0431 5.446685,-0.0634 0.206992,0.49215 -0.233563,0.94152 -0.602759,1.13576 z"
     inkscape:connector-curvature="0" />
  <path
     inkscape:connector-curvature="0"
     d="m 104.43298,101.93706 c -3.15647,0.25609 -6.388928,-0.0592 -9.37206,-1.15615 -1.847381,-0.61956 -3.907799,-0.64659 -5.738037,0.0502 -1.501751,0.54118 -3.069675,0.86597 -4.584356,1.36433 -2.056518,0.73101 -3.951176,1.84566 -5.768287,3.04019 -3.481512,2.35305 -6.600048,5.31762 -8.84951,8.88513 -1.172487,1.86409 -2.055362,3.90659 -2.615971,6.03604 -0.507993,1.74146 -0.856984,3.53171 -1.45681,5.24452 -0.862603,1.58985 -2.436183,2.64762 -4.069497,3.33118 -0.782307,0.35089 -1.540686,0.77676 -2.223091,1.29131 -0.187721,0.24642 0.09605,0.4799 0.333342,0.50274 0.433499,0.0542 0.808354,-0.23854 1.222997,-0.31497 1.86404,-0.53457 3.868521,-0.56486 5.646324,-1.39196 1.710293,-0.97548 2.874118,-2.68555 3.566492,-4.49345 1.618013,-3.50972 3.117951,-7.12906 5.469522,-10.22956 2.224445,-2.94921 5.00271,-5.55914 8.345922,-7.18759 2.211088,-1.03275 4.608853,-1.57234 6.854771,-2.51756 1.505951,-0.56403 3.139952,-0.32794 4.696473,-0.17066 2.011428,0.22274 4.028979,-0.0626 6.039636,-0.15049 0.60544,-0.0487 1.22222,-0.0484 1.81581,-0.18138 0.70698,-0.26672 1.09744,-1.12933 0.87365,-1.84325 -0.0426,-0.0605 -0.11366,-0.10178 -0.18732,-0.10857 z"
     style="fill:#000000;fill-rule:nonzero;stroke-width:0.246219"
     id="path34359-0-1-3-5" />
  <path
     inkscape:connector-curvature="0"
     d="m 124.05106,98.428129 c -3.57406,0.904258 -7.16264,1.960781 -10.87543,2.044131 -6.80757,-0.0413 -13.633407,-0.24887 -20.421768,0.39248 -3.306862,0.27855 -6.613711,0.5571 -9.920583,0.83566 -0.2451,-0.13413 -0.554907,0.23715 -0.353937,0.44664 2.539095,0.34621 5.11259,0.51073 7.604415,1.14178 1.132464,0.81454 2.470948,1.41878 3.886299,1.43284 2.338955,0.2254 4.689513,0.28289 7.035244,0.40051 3.09334,0.10054 6.23678,-0.12148 9.1949,-1.08678 4.02853,-1.19401 7.95146,-2.70765 11.92868,-4.05643 0.73587,-0.263429 1.47583,-0.515771 2.20472,-0.798233 0.28465,-0.223691 0.0817,-0.775726 -0.28254,-0.752598 z"
     style="fill:#000000;fill-rule:nonzero;stroke-width:0.264583"
     id="path34503" />
  <path
     inkscape:connector-curvature="0"
     d="m 65.330198,140.48602 c -2.91719,1.27741 -5.561409,3.20887 -8.688295,3.97763 -1.062397,0.46319 -1.899569,1.70132 -1.536314,2.87393 0.670869,1.32735 2.570152,1.67574 3.761718,0.85938 2.094346,-0.66075 4.199675,-1.46088 6.423828,-1.49219 1.73035,0.58651 2.793065,2.16867 3.930549,3.4932 2.758824,3.0529 4.977436,6.58833 6.581562,10.37394 0.183804,0.60797 -0.142767,1.23883 -0.587865,1.63538 -0.157825,0.37512 0.238091,0.69907 0.585884,0.70852 1.163763,0.39018 2.701788,0.0224 3.257445,-1.1544 0.17023,-1.09282 -0.681667,-1.93792 -1.211036,-2.79306 -3.585712,-5.74237 -7.019382,-11.57899 -10.56327,-17.34613 -0.442537,-0.62688 -1.132574,-1.22872 -1.954206,-1.1362 z"
     inkscape:transform-center-y="-5.4350733"
     inkscape:transform-center-x="1.519728"
     style="fill:#000000;fill-rule:nonzero;stroke-width:0.20404"
     id="path34510" />
  <path
     inkscape:connector-curvature="0"
     d="m 98.037202,70.54194 c -6.646791,0.554032 -13.065175,2.484396 -19.453839,4.289893 -4.541238,1.40847 -9.142381,2.623246 -13.65852,4.110981 -2.740655,1.218348 -5.435856,2.825543 -7.229406,5.290532 -1.940931,2.857121 -2.732164,6.307014 -3.138671,9.689453 -0.68197,6.319331 0.04994,12.665451 0.47994,18.974821 0.501633,6.44567 0.946493,12.90634 1.961466,19.29678 -0.07328,0.33249 0.558316,0.20325 0.394531,-0.084 0.430247,-1.71409 0.409152,-3.49726 0.700265,-5.2343 0.767966,-6.45699 1.333459,-12.97418 0.908582,-19.4782 -0.100629,-5.80234 0.612677,-11.587068 1.62784,-17.290019 0.448299,-2.160604 1.330492,-4.336317 3.021969,-5.822944 1.882945,-1.764872 4.431277,-2.609811 6.946289,-2.950243 2.138786,-0.305981 4.354774,-0.399466 6.361299,-1.278838 7.72163,-2.637907 15.611128,-4.773355 23.252063,-7.648692 0.53334,0.05469 0.71455,-0.846174 0.21094,-1.013672 -0.631097,-0.601335 -1.521881,-0.885703 -2.384748,-0.851562 z"
     style="fill:#000000;fill-rule:nonzero;stroke-width:0.463436"
     id="path34512" />
  <path
     inkscape:connector-curvature="0"
     d="m 155.42543,140.33966 c -4.2398,2.82021 -6.99052,7.52886 -7.95416,12.47488 -1.72269,7.44953 -3.03347,15.05695 -5.95376,22.16325 -1.98713,4.63106 -4.31295,9.10759 -6.31279,13.73297 0.58113,0.673 1.70219,0.41183 2.19141,-0.24024 3.82746,-2.73504 6.59134,-6.68897 8.68706,-10.84604 3.17841,-6.3766 5.37532,-13.1744 7.6318,-19.91468 1.39057,-4.43103 2.60403,-8.981 2.7615,-13.64649 -0.0364,-1.21926 -0.19614,-2.45856 -0.69364,-3.58302 -0.0985,-0.0813 -0.22031,-0.17842 -0.35742,-0.14063 z"
     style="fill:#000000;fill-rule:nonzero;stroke-width:0.264583"
     id="path34514" />
  <path
     inkscape:connector-curvature="0"
     d="m 63.395726,182.22619 c -2.095299,1.31007 -1.705538,4.44895 0.697405,5.34263 3.452918,2.07749 7.937838,2.68894 11.074924,5.17368 1.989355,1.73889 2.488723,4.21559 2.920485,6.50063 0.85336,4.44337 1.364397,8.92543 1.874084,13.40347 1.464604,-1.09245 1.627091,-2.86129 1.576811,-4.39834 0.0656,-5.44278 -0.720684,-10.94654 -2.935492,-16.08702 -1.893036,-2.60267 -5.130205,-4.17327 -8.096509,-5.80109 -2.30809,-1.03876 -4.078684,-2.69846 -6.250507,-3.89945 -0.264293,-0.0796 -0.619285,-0.49353 -0.861201,-0.23451 z"
     style="fill:#000000;fill-rule:nonzero;stroke-width:0.29733"
     id="path34516" />
  <path
     inkscape:connector-curvature="0"
     d="m 109.24965,156.82158 c -1.68491,0.70859 -2.42203,4.02119 -1.60547,6.24765 0.57569,3.08324 1.17533,6.45461 0.4193,9.59108 -0.93001,4.05002 -3.10327,7.02905 -5.19723,9.76441 -2.60504,3.9378 -3.847044,9.47781 -4.159561,14.91713 -1.300294,12.11681 -1.744201,24.6625 0.0943,36.71109 0.200397,1.19127 0.435677,2.36821 0.663547,3.54799 1.243284,-1.18521 1.537184,-3.55197 1.654834,-5.59484 1.22882,-13.41136 1.23229,-27.09839 3.42073,-40.29163 0.70212,-4.04184 2.06411,-7.77986 3.82823,-10.99355 1.97866,-3.9551 4.00713,-8.12154 4.67433,-13.07084 0.41815,-2.92461 0.36069,-6.29874 -0.9336,-8.73322 -0.69466,-1.2589 -1.73888,-2.21524 -2.85937,-2.09527 z"
     style="fill:#000000;fill-rule:nonzero;stroke-width:0.453751"
     id="path34520" />
  <path
     id="path34512-5"
     style="fill:#000000;fill-rule:nonzero;stroke-width:0.463436"
     d="m 184.54429,82.848375 c -2.12728,-6.321539 -5.53637,-12.092166 -8.81708,-17.863799 -2.45348,-4.072723 -4.73321,-8.249935 -7.25766,-12.279329 -1.83833,-2.369826 -4.04336,-4.602544 -6.8657,-5.754657 -3.23835,-1.201452 -6.77735,-1.144871 -10.15888,-0.730756 -6.2991,0.848844 -12.28607,3.076913 -18.30956,5.003117 -6.13873,2.028312 -12.3056,4.005089 -18.26797,6.518653 -0.34039,0.0083 -0.0639,0.590723 0.17612,0.362895 1.76723,0.0079 3.49363,-0.438944 5.24989,-0.571627 6.45332,-0.798254 12.91664,-1.807502 19.13036,-3.775242 5.60993,-1.485113 11.39741,-2.175694 17.17767,-2.553632 2.20513,-0.08133 4.52866,0.25503 6.37662,1.541969 2.16392,1.406329 3.59369,3.6787 4.52561,6.039354 0.80851,2.003584 1.42916,4.132927 2.76281,5.870984 4.40772,6.86688 8.36771,14.016909 12.98668,20.748711 0.0744,0.530951 0.99249,0.491493 1.03471,-0.03755 0.433,-0.75658 0.49611,-1.689535 0.25663,-2.519207 z"
     inkscape:connector-curvature="0" />
  <path
     inkscape:connector-curvature="0"
     d="m 135.59077,73.539265 c -5.57047,-3.668375 -11.8111,-6.113078 -17.95125,-8.637639 -4.44182,-1.696152 -8.81115,-3.581659 -13.28216,-5.199964 -2.90808,-0.733902 -6.020498,-1.13387 -8.953323,-0.302367 -3.290902,1.04896 -6.043464,3.274039 -8.451722,5.683701 -4.438393,4.549691 -7.781175,9.993414 -11.338697,15.221866 -3.58538,5.379878 -7.224678,10.736512 -10.372168,16.389933 -0.26296,0.216276 0.313662,0.504625 0.362207,0.177532 1.396822,-1.082637 2.481271,-2.498297 3.782824,-3.684903 4.591038,-4.604868 9.059962,-9.382087 12.741731,-14.760461 3.503562,-4.626229 7.636488,-8.736043 11.956354,-12.595153 1.686708,-1.422714 3.724069,-2.589416 5.972504,-2.714364 2.57087,-0.225593 5.09711,0.683278 7.28561,1.968425 1.8713,1.079945 3.67211,2.374696 5.79343,2.921941 7.70264,2.692855 15.22707,5.884597 23.01289,8.340888 0.38576,0.372345 1.08454,-0.22439 0.79182,-0.667091 -0.12511,-0.862695 -0.65023,-1.636414 -1.35003,-2.142358 z"
     style="fill:#000000;fill-rule:nonzero;stroke-width:0.463436"
     id="path34512-5-9" />
  <path
     inkscape:connector-curvature="0"
     id="path34516-3"
     style="fill:#000000;fill-rule:nonzero;stroke-width:0.264583"
     d="m 74.871868,174.50177 c -2.182676,0.0378 -4.389969,0.9346 -5.832031,2.60156 -0.482034,1.14257 -0.314872,2.62193 0.636718,3.47657 1.954279,-1.42078 4.219623,-2.74618 6.719699,-2.64051 3.217853,0.47989 6.224415,1.96573 8.8187,3.89525 0.813867,0.55137 1.541404,1.26538 1.899301,2.19991 1.106014,2.8516 1.104804,5.95725 1.440851,8.95782 0.510557,4.67823 0.939794,9.36548 1.412941,14.0478 0.14242,1.44358 0.28484,2.88716 0.42725,4.33074 1.422321,-2.63616 1.394801,-5.74085 1.156131,-8.64585 -0.624984,-7.35822 -1.133791,-14.72645 -1.849488,-22.0768 -0.756177,-1.88272 -2.637925,-2.966 -4.435546,-3.68164 -3.321229,-1.29041 -6.774281,-2.57438 -10.394526,-2.46485 z" />
  <path
     inkscape:connector-curvature="0"
     d="m 168.99849,81.489265 c -0.97244,-0.274667 -2.07256,-0.131614 -2.74472,0.642478 -1.08288,1.071734 -1.17797,2.99126 -0.12262,4.210232 2.40376,4.072923 4.32703,8.448788 5.58698,12.986984 1.28666,4.717521 1.85029,9.684441 1.01969,14.446741 -0.93843,5.92095 -3.0887,11.4928 -4.49288,17.2819 -1.83204,6.69988 -3.50583,13.64876 -2.79435,20.75855 0.90434,11.39609 2.37596,22.86241 5.81282,33.899 0.35921,1.02414 0.75351,2.19453 1.67253,2.84362 0.75139,0.13424 0.7673,-0.81873 0.68743,-1.34852 -0.35907,-2.38262 -0.58599,-4.77797 -0.88841,-7.16748 -1.04931,-8.95214 -2.03291,-17.97104 -1.54535,-26.93159 0.33553,-5.44638 1.52658,-10.82108 3.75043,-15.72343 2.04695,-4.85941 4.94068,-9.37678 6.05857,-14.62859 0.73412,-3.16668 0.87631,-6.45317 0.89617,-9.72352 0.13194,-6.32776 0.008,-12.67329 -0.33027,-19.012577 -0.25644,-3.018539 -1.08582,-6.253511 -3.40717,-8.422703 -2.46203,-2.450687 -5.85038,-3.67365 -9.15885,-4.111095 z"
     style="fill:#000000;fill-rule:nonzero;stroke-width:0.414326"
     id="path34611" />
  <path
     inkscape:connector-curvature="0"
     d="m 88.850086,57.364322 c -3.933999,-1.358208 -8.166555,-0.593973 -12.122657,0.247934 -7.253336,1.512711 -14.746016,2.614143 -21.41938,6.018786 -4.841903,2.703163 -7.796641,8.045272 -8.370499,13.46731 -1.423833,9.236395 -3.555138,18.490679 -3.013604,27.896508 0.483555,8.16307 3.71272,15.80702 6.99815,23.18401 0.424599,0.79176 0.748552,1.72196 1.415127,2.32713 0.711106,0.15873 1.261934,-0.79271 0.808072,-1.34279 -1.248145,-7.41315 -4.84628,-14.30217 -5.272358,-21.87576 -0.06922,-7.21179 -0.347286,-14.577801 1.648358,-21.588411 2.042814,-6.633007 6.209118,-12.325743 10.470202,-17.700154 2.765087,-2.987215 6.796228,-4.253508 10.639509,-5.180164 6.271061,-1.54875 12.72549,-2.383298 18.852444,-4.4898 0.3883,-0.399131 -0.250867,-0.913176 -0.633364,-0.964599 z"
     style="fill:#000000;fill-rule:nonzero;stroke-width:0.264583"
     id="path34614" />
  <path
     inkscape:connector-curvature="0"
     d="m 62.649731,192.20842 c -2.604723,0.91647 -4.26544,3.42619 -5.06201,5.96 -1.842678,5.378 -1.07468,11.38518 1.289999,16.47589 1.126466,3.03735 2.617902,6.17697 5.369563,8.06452 3.678688,2.36891 8.106526,2.9209 12.256326,4.00657 4.297022,1.03057 8.749395,2.20387 12.269047,5.01074 3.493279,3.25238 5.31505,7.90361 6.079274,12.53228 0.530137,2.42486 0.18044,4.94499 0.667167,7.3714 0.12588,0.67903 0.642537,1.54784 1.453011,1.31345 1.146524,-0.35457 1.459151,-1.76807 1.282414,-2.82516 -0.407647,-2.94303 -1.485741,-5.7357 -2.392398,-8.55018 -1.404681,-4.44538 -3.301949,-8.89619 -6.600761,-12.2819 -3.017845,-3.09415 -6.976131,-5.0224 -10.967717,-6.53924 -2.315492,-0.84498 -4.636627,-1.7137 -6.766601,-2.97176 -2.672916,-1.52111 -5.061844,-3.56568 -6.841476,-6.08435 -2.656422,-3.5214 -4.417096,-7.93663 -4.038204,-12.40091 0.258167,-1.70128 1.213105,-3.5503 2.975913,-4.05771 0.91095,-0.12804 2.15128,-0.36004 2.366306,-1.42712 0.259385,-1.8669 -1.481594,-3.67658 -3.339853,-3.59652 z"
     style="fill:#000000;fill-rule:nonzero;stroke-width:0.264583"
     id="path34624" />
  <path
     inkscape:connector-curvature="0"
     d="m 163.56514,164.22917 c -1.94896,-1.0775 -4.45447,-0.50877 -5.79017,1.25384 0.65156,4.65402 -0.94249,9.27045 -3.47018,12.82305 -3.83612,7.9126 -6.90937,16.31544 -11.48014,23.7616 -0.93669,1.33842 -2.1065,2.87529 -3.82168,2.85174 -2.16864,0.0624 -4.64468,-0.49135 -6.10193,-2.48717 -1.30018,-2.0054 -3.26194,-3.83255 -5.57105,-3.93236 -3.04459,0.28301 -5.51291,2.74833 -6.76522,5.63733 -0.99387,2.29229 -1.65089,4.74732 -2.40172,7.15007 -1.81147,6.56811 -2.84189,13.38442 -4.48062,20.00936 -0.9463,4.36035 -2.13746,8.65484 -2.82679,13.08747 -0.15945,1.44189 -0.26745,3.01367 0.30185,4.39053 0.91035,0.76779 2.27406,-0.12861 2.27394,-1.2888 1.64629,-4.77375 4.2391,-9.04931 5.80294,-13.86535 1.465,-3.97254 2.28895,-8.21058 2.81703,-12.4799 0.72734,-3.6391 2.53622,-7.22363 5.639,-8.94619 2.88107,-1.56712 6.41084,-0.96041 9.32718,0.52679 3.90952,2.0223 7.54582,4.98356 11.8542,5.81115 2.02427,0.51069 3.90689,-1.04735 4.71847,-2.92602 1.32616,-3.47235 2.14644,-7.15893 3.13264,-10.7689 2.54009,-9.9482 4.71587,-20.08296 8.52112,-29.52445 0.96165,-2.86747 1.36656,-6.27392 -0.0276,-9.16891 -0.39341,-0.77054 -0.95419,-1.45813 -1.65122,-1.91488 z"
     style="fill:#000000;fill-rule:nonzero;stroke-width:0.29672"
     id="path34627" />
  <path
     inkscape:connector-curvature="0"
     d="m 58.865668,167.53727 c -2.183116,-0.87762 -4.515527,-1.70349 -7.028387,-1.75653 -1.584578,-0.004 -3.200828,0.30206 -4.507026,1.00191 -0.402882,0.55924 0.4728,1.25255 1.235104,1.06662 2.310214,-0.20351 4.597175,-0.81956 6.945774,-0.57139 0.628689,0.0687 1.241933,0.20465 1.833507,0.37878 -0.502044,0.42641 -1.319638,0.28991 -1.979904,0.39962 -0.271959,0.0354 -0.539684,0.0873 -0.804372,0.14614 1.611029,-0.1154 3.229893,-0.0267 4.841039,0.0393 0.183976,-0.30527 -0.207591,-0.584 -0.535735,-0.70448 z"
     style="fill:#000000;fill-rule:nonzero;stroke-width:0.137937"
     id="path34466-9-3" />
  <path
     inkscape:connector-curvature="0"
     d="m 54.40585,188.1967 c -2.859345,0.0359 -5.854364,0.51832 -8.234375,2.20899 -2.124592,1.60614 -3.068846,4.40384 -2.860482,7.00091 0.216674,5.1125 1.946123,10.00104 3.877485,14.68841 1.825476,4.44747 2.963862,9.14902 3.680545,13.89472 0.660318,3.71961 1.140378,7.53665 0.587198,11.30333 -0.08801,0.74656 -0.180908,1.49268 -0.247636,2.24154 0.899338,0.16477 1.56883,-0.5954 2.198741,-1.10558 2.214436,-1.84489 3.380102,-4.98137 2.607204,-7.79946 -1.731372,-9.97621 -4.343546,-19.77352 -6.158689,-29.73291 -0.264475,-2.18534 0.17895,-4.5814 1.714975,-6.23736 1.439685,-1.76086 3.344606,-3.05114 4.9073,-4.6911 0.366938,-0.84478 -0.493946,-1.75115 -1.338972,-1.73677 -0.242337,-0.0359 -0.488772,-0.0381 -0.733294,-0.0347 z"
     style="fill:#000000;fill-rule:nonzero;stroke-width:0.264583"
     id="path34645" />
  <path
     inkscape:connector-curvature="0"
     d="m 86.327268,115.04187 c -4.574323,1.41608 -7.155788,6.37411 -5.37686,10.3115 0.885497,2.10505 3.860639,3.38595 6.285807,2.54014 3.741649,-0.89375 7.338218,-2.57945 9.823473,-5.22748 0.929444,-0.88742 2.203988,-1.67202 2.451475,-2.93502 0.0298,-1.21452 -1.121901,-2.13545 -2.258475,-2.66859 -2.367678,-1.22361 -4.923213,-2.45227 -7.749158,-2.47692 -1.077834,0.002 -2.157698,0.14486 -3.176262,0.45637 z"
     style="fill:#000000;fill-rule:nonzero;stroke-width:0.282861"
     id="path34650" />
  <path
     id="path34359-0-1-3-5-6"
     style="fill:#000000;fill-rule:nonzero;stroke-width:0.388218"
     d="m 131.13642,49.3651 c -4.54472,-0.870724 -8.99728,-2.720946 -12.825,-5.766233 -2.39127,-1.786674 -5.29011,-2.677355 -8.11673,-2.27227 -2.30866,0.281742 -4.63516,0.177156 -6.94711,0.382512 -3.15795,0.369087 -6.221362,1.441338 -9.203194,2.678013 -5.735547,2.476277 -11.172257,6.116515 -15.592783,11.114256 -2.305716,2.612584 -4.264932,5.640184 -5.799624,8.944393 -1.324979,2.681841 -2.442563,5.509932 -3.887155,8.106516 -1.772578,2.28464 -4.362944,3.394301 -6.906985,3.858344 -1.226719,0.261252 -2.445844,0.65678 -3.588684,1.230665 -0.350997,0.33195 -0.03196,0.835953 0.295002,0.971266 0.592973,0.267876 1.224256,-0.06408 1.836208,-0.02073 2.817701,-0.12206 5.657587,0.650518 8.455681,0.0075 2.754606,-0.916956 4.99433,-3.277476 6.602753,-5.993902 3.509071,-5.161034 6.889743,-10.55247 11.291359,-14.733166 4.169336,-3.981787 9.001939,-7.1731 14.289322,-8.503485 3.48148,-0.806431 7.0543,-0.717708 10.55439,-1.364567 2.32255,-0.317932 4.54652,0.744692 6.68863,1.644692 2.76138,1.195402 5.70876,1.55002 8.57746,2.229549 0.87158,0.167642 1.74205,0.421471 2.62631,0.44436 1.09103,-0.152459 1.9433,-1.423873 1.87667,-2.700676 -0.0389,-0.117956 -0.12491,-0.215593 -0.22652,-0.257102 z"
     inkscape:connector-curvature="0" />
  <path
     id="path34512-59"
     style="fill:#000000;fill-rule:nonzero;stroke-width:0.615373"
     d="m 86.175351,38.348951 c -7.731958,0.839767 -15.198173,3.765692 -22.629823,6.502349 -5.282619,2.134872 -10.634921,3.976154 -15.888341,6.231169 -3.18808,1.846693 -6.323286,4.28278 -8.409641,8.019053 -2.257799,4.330645 -3.178203,9.559776 -3.651075,14.686664 -0.793305,9.578453 0.05809,19.19744 0.558292,28.760744 0.583528,9.76995 1.101012,19.56266 2.281685,29.24894 -0.08524,0.50396 0.649464,0.30807 0.45894,-0.12733 0.500487,-2.59811 0.475949,-5.30094 0.814587,-7.93385 0.893341,-9.78716 1.551152,-19.6655 1.056913,-29.523849 -0.117057,-8.794777 0.7127,-17.562893 1.893592,-26.207068 0.521488,-3.274906 1.547702,-6.572716 3.51532,-8.826052 2.190345,-2.67508 5.154704,-3.955787 8.080306,-4.471792 2.487952,-0.463787 5.065712,-0.605486 7.399811,-1.938381 8.982228,-3.998375 18.15973,-7.235152 27.048109,-11.593406 0.620407,0.0829 0.831204,-1.282579 0.245377,-1.536462 -0.734124,-0.911466 -1.770338,-1.342493 -2.774052,-1.290744 z"
     inkscape:connector-curvature="0" />
  <path
     style="fill:#000000;fill-rule:nonzero;stroke-width:0.171796"
     id="path34411-79"
     sodipodi:type="arc"
     sodipodi:cx="51.691097"
     sodipodi:cy="139.24631"
     sodipodi:rx="9.8958282"
     sodipodi:ry="1.6238558"
     sodipodi:start="0"
     sodipodi:end="6.1059122"
     sodipodi:arc-type="arc"
     d="m 61.586926,139.24631 a 9.8958282,1.6238558 0 0 1 -9.457406,1.62226 9.8958282,1.6238558 0 0 1 -10.295403,-1.47852 9.8958282,1.6238558 0 0 1 8.545155,-1.75327 9.8958282,1.6238558 0 0 1 11.052568,1.32317"
     sodipodi:open="true"
     transform="matrix(0.99980887,0.01955043,-0.02704439,0.99963423,0,0)" />
  <path
     transform="matrix(0.93992637,0.34137725,-0.33827954,0.94104567,0,0)"
     sodipodi:open="true"
     d="m 103.10125,108.94817 a 7.8328052,1.623634 0 0 1 -7.485779,1.62204 7.8328052,1.623634 0 0 1 -8.149079,-1.47831 7.8328052,1.623634 0 0 1 6.763712,-1.75303 7.8328052,1.623634 0 0 1 8.748396,1.32298"
     sodipodi:arc-type="arc"
     sodipodi:end="6.1059122"
     sodipodi:start="0"
     sodipodi:ry="1.623634"
     sodipodi:rx="7.8328052"
     sodipodi:cy="108.94817"
     sodipodi:cx="95.268448"
     sodipodi:type="arc"
     id="path34411-79-6"
     style="fill:#000000;fill-rule:nonzero;stroke-width:0.152833" />
  <path
     inkscape:transform-center-y="-1.4445918"
     inkscape:transform-center-x="0.4011893"
     style="fill:#000000;fill-rule:nonzero;stroke-width:0.118739"
     id="path34411-5"
     sodipodi:type="arc"
     sodipodi:cx="35.331627"
     sodipodi:cy="179.14648"
     sodipodi:rx="6.0208178"
     sodipodi:ry="1.274984"
     sodipodi:start="0"
     sodipodi:end="6.1059122"
     sodipodi:arc-type="arc"
     d="m 41.352445,179.14648 a 6.0208178,1.274984 0 0 1 -5.754073,1.27374 6.0208178,1.274984 0 0 1 -6.263927,-1.16087 6.0208178,1.274984 0 0 1 5.199041,-1.3766 6.0208178,1.274984 0 0 1 6.724602,1.0389"
     sodipodi:open="true"
     transform="matrix(0.98221982,-0.18773444,0.10575988,0.9943917,0,0)" />
</svg>
