<?xml version="1.0" encoding="UTF-8" standalone="no"?>
<svg
   xmlns:dc="http://purl.org/dc/elements/1.1/"
   xmlns:cc="http://creativecommons.org/ns#"
   xmlns:rdf="http://www.w3.org/1999/02/22-rdf-syntax-ns#"
   xmlns:svg="http://www.w3.org/2000/svg"
   xmlns="http://www.w3.org/2000/svg"
   xmlns:sodipodi="http://sodipodi.sourceforge.net/DTD/sodipodi-0.dtd"
   xmlns:inkscape="http://www.inkscape.org/namespaces/inkscape"
   width="210mm"
   height="180mm"
   viewBox="30 115 170 150"
   version="1.1"
   id="svg878"
   inkscape:version="1.0beta2 (2b71d25, 2019-12-03)"
   sodipodi:docname="mobius-pillar.svg">
  <style
     id="style833">
      .side-a {
         transition: 2s;
      }
      .side-a:hover {
         fill: maroon !important; 
         transition: 0s;
      }
      .side-a:press {
         fill: maroon !important;
         transition: 0s;
      }
      .side-b {
         transition: 2s;
      }
      .side-b:hover {
         fill: #008080 !important; 
         transition: 0s;
      }
      .side-b:press {
         fill: #008080 !important;
         transition: 0s;
      }
   </style>
  <defs
     id="defs872">
    <inkscape:perspective
       id="perspective927"
       inkscape:persp3d-origin="105 : 99 : 1"
       inkscape:vp_z="210 : 148.5 : 1"
       inkscape:vp_y="0 : 1000 : 0"
       inkscape:vp_x="0 : 148.5 : 1"
       sodipodi:type="inkscape:persp3d" />
  </defs>
  <sodipodi:namedview
     id="base"
     pagecolor="#ffffff"
     bordercolor="#666666"
     borderopacity="1.0"
     inkscape:pageopacity="0.0"
     inkscape:pageshadow="2"
     inkscape:zoom="1.2997255"
     inkscape:cx="405.08661"
     inkscape:cy="652.55586"
     inkscape:document-units="mm"
     inkscape:current-layer="layer1"
     inkscape:document-rotation="0"
     showgrid="false"
     inkscape:window-width="1440"
     inkscape:window-height="855"
     inkscape:window-x="0"
     inkscape:window-y="23"
     inkscape:window-maximized="0" />
  <metadata
     id="metadata875">
    <rdf:RDF>
      <cc:Work
         rdf:about="">
        <dc:format>image/svg+xml</dc:format>
        <dc:type
           rdf:resource="http://purl.org/dc/dcmitype/StillImage" />
        <dc:title />
      </cc:Work>
    </rdf:RDF>
  </metadata>
  <g
     inkscape:label="Layer 1"
     inkscape:groupmode="layer"
     id="layer1">
    <rect
       class="side-b"
       style="fill:#000000;stroke-width:0.214161"
       id="rect1441-5-3"
       width="23.710518"
       height="6.9307661"
       x="52.399517"
       y="-204.2572"
       transform="scale(1,-1)" />
    <rect
       class="side-a"
       style="fill:#000000;stroke-width:0.264583"
       id="rect1441"
       width="31.370832"
       height="10.578537"
       x="48.515362"
       y="175.45779" />
    <rect
       class="side-a"
       y="168.34464"
       x="52.399513"
       height="6.9307656"
       width="23.710518"
       id="rect1441-5"
       style="fill:#000000;stroke-width:0.214161" />
    <rect
       class="side-b"
       y="-197.14403"
       x="48.515362"
       height="10.578537"
       width="31.370834"
       id="rect1441-2"
       style="fill:#000000;stroke-width:0.264583"
       transform="scale(1,-1)" />
    <path
       inkscape:connector-curvature="0"
       class="side-a"
       d="M 62.103516 147.01367 C 61.672701 147.17766 61.317864 147.5222 60.966115 147.81963 C 59.499992 149.18683 58.581547 151.03032 57.900147 152.88944 C 56.731128 156.21343 56.475589 159.75325 55.991125 163.21834 C 55.725495 165.31906 55.539311 167.54787 56.37099 169.55211 C 56.856452 170.70946 57.825795 171.81644 59.138056 171.96286 C 60.042247 172.06687 60.991954 171.52333 61.275391 170.64062 C 61.727465 169.51814 61.667832 168.28316 61.863141 167.10621 C 62.487037 161.79277 62.99549 156.46534 63.351079 151.12717 C 63.461805 149.96347 63.693956 148.69019 63.105723 147.61227 C 62.889984 147.27566 62.524888 146.98106 62.103516 147.01367 z "
       style="fill:#000000;stroke-width:0.264583"
       id="path846" />
    <path
       class="side-a"
       inkscape:connector-curvature="0"
       id="path846-1"
       style="fill:#000000;stroke-width:0.264583"
       d="M 66.568359 145.07422 C 64.807696 145.26941 63.450261 146.60479 62.470497 147.98311 C 60.796816 150.35199 60.328541 153.31644 60.199448 156.15174 C 59.867497 160.78672 58.217587 165.19967 57.734375 169.8125 C 57.989114 172.01702 60.707647 173.41828 62.676112 172.44581 C 64.905868 171.63036 66.215151 169.1106 65.909797 166.80517 C 66.023094 162.99844 66.357109 159.08133 68.004674 155.59068 C 69.018493 153.15898 70.254423 150.70477 70.31448 148.01624 C 70.188233 146.20486 68.271325 144.98384 66.568359 145.07422 z " />
    <path
       class="side-a"
       d="M 78.634766 137.2793 C 75.884664 137.32494 73.116381 137.68161 70.501953 138.56055 C 69.569238 138.90643 68.613347 139.25444 67.797744 139.83479 C 66.686708 140.65998 65.808067 141.79506 65.289062 143.07812 C 65.584695 144.79535 66.477919 146.40146 66.414062 148.17773 C 64.826316 154.13691 62.105099 159.73461 60.667453 165.73796 C 60.52838 166.48362 60.792557 167.24401 61.258634 167.82545 C 62.281108 169.23964 63.989481 169.93894 65.63799 170.31745 C 67.026331 170.60909 68.513825 170.74937 69.881502 170.29305 C 71.275083 169.69488 72.072206 168.30751 72.728516 167.01562 C 74.151418 164.168 76.564632 162.02219 78.667969 159.69336 C 79.502338 158.74903 80.539451 157.80534 80.68826 156.48024 C 80.862725 155.13889 79.952743 153.95006 80.016053 152.61374 C 80.024501 151.40842 80.466791 150.26629 80.670872 149.08936 C 81.340016 146.03952 82.097712 142.95897 82.028954 139.81561 C 81.780129 138.25984 80.164737 137.16124 78.634766 137.2793 z "
       style="fill:#000000;stroke-width:0.42142"
       id="path846-1-8"
       inkscape:connector-curvature="0" />
    <path
       inkscape:connector-curvature="0"
       class="side-a"
       d="M 100.04883 128.06641 C 96.749524 128.37565 93.440983 128.69408 90.19013 129.35844 C 87.974092 129.80632 85.80006 130.45825 83.71332 131.3299 C 81.566916 132.1816 79.409609 133.01546 77.197344 133.68058 C 74.641412 134.65776 72.45518 136.3546 70.386343 138.10651 C 67.307366 140.65579 64.065255 143.10561 61.655006 146.33692 C 61.008313 147.25247 60.321292 148.19019 60.021791 149.28456 C 59.907167 150.69372 61.064043 151.96104 62.397588 152.25315 C 65.212819 153.20759 68.22106 153.13529 71.147646 153.39129 C 73.32689 153.54945 75.562433 153.78557 77.564957 154.71727 C 78.273703 155.17817 78.348263 156.26377 77.799314 156.87829 C 77.368967 157.55066 76.729848 158.07901 76.392578 158.8125 C 76.429217 159.18749 76.907531 159.11999 77.175319 159.13238 C 79.591354 159.13028 81.790892 158.01194 84.033961 157.26361 C 93.513075 153.89803 103.02999 150.63907 112.49209 147.22565 C 115.53056 146.1123 118.58293 145.02974 121.57468 143.79533 C 123.86961 142.76397 126.16334 141.50022 127.77592 139.52018 C 128.3512 138.69802 128.70855 137.7218 128.78711 136.7207 C 128.30802 135.33543 127.00662 134.48331 125.76176 133.84685 C 123.07323 132.4286 119.99324 132.07454 117.00271 131.90087 C 112.60238 131.41204 108.1983 130.92653 103.83203 130.18359 C 102.76786 129.74224 102.34119 128.40306 101.17188 128.14258 C 100.80258 128.067 100.42479 128.04827 100.04883 128.06641 z "
       style="fill:#000000;stroke-width:0.297596"
       id="path879" />
    <path
       inkscape:connector-curvature="0"
       class="side-a"
       id="path850"
       style="fill:#000000;stroke-width:0.349529"
       d="M 104.83008 123.80273 C 99.664199 124.66279 94.520365 125.64756 89.375 126.62109 C 86.649949 127.80766 84.072245 129.29882 81.496654 130.77385 C 79.155731 132.17161 76.845498 133.769 75.208548 135.98716 C 75.055439 136.23331 74.829835 136.4595 74.727318 136.72219 C 74.729767 137.04173 74.800711 137.3625 74.949219 137.64648 C 77.238768 136.46862 79.421698 134.91552 82.012606 134.48261 C 84.469331 134.06883 86.974334 134.01407 89.457031 134.16992 C 91.276804 134.94397 92.409414 136.81023 92.748562 138.70156 C 93.517676 142.12948 93.761675 145.65727 93.691406 149.16406 C 93.070416 150.9064 91.485335 152.09756 89.833735 152.79405 C 87.755321 153.68876 85.591054 154.38493 83.572266 155.41602 C 83.27871 155.77129 83.582495 156.2647 83.848451 156.54017 C 84.25646 156.93197 84.868667 156.95986 85.38759 156.82645 C 98.625528 156.06624 111.87966 155.25224 125.14571 155.49183 C 128.59465 155.8571 131.82598 157.34709 135.29688 157.57422 C 135.97025 156.65466 135.89579 155.41354 135.55469 154.38086 C 135.35987 153.22771 136.05692 152.16275 136.83008 151.37695 C 138.29007 149.63724 138.80262 147.36141 139.28158 145.19829 C 140.36904 140.11921 141.26874 135.00059 141.99414 129.85742 C 141.82536 127.4784 139.79191 125.49116 137.4868 125.09177 C 135.48771 124.68116 133.43166 124.80154 131.41314 124.55417 C 123.30517 123.93311 115.1803 123.41929 107.04492 123.44727 C 106.30664 123.56576 105.56836 123.68424 104.83008 123.80273 z " />
    <path
       inkscape:connector-curvature="0"
       class="side-a"
       d="M 135.57812 124.83984 C 135.11571 125.52347 135.47816 126.35933 135.45838 127.11193 C 135.77591 130.69048 136.36853 134.31398 135.76953 137.89648 C 135.07712 141.75949 134.17924 145.58839 132.98591 149.32869 C 132.92526 149.66444 132.79621 150.08965 132.40038 150.14095 C 130.7067 150.80903 129.0012 151.58869 127.15234 151.66602 C 126.67339 151.66008 126.34056 152.10833 126.33185 152.55809 C 126.29947 153.48368 127.07539 154.21473 127.89008 154.51572 C 129.21339 155.00919 130.4857 155.62545 131.77746 156.19495 C 135.25046 157.77513 138.7108 159.38378 142.21209 160.90086 C 144.97455 162.13083 147.6843 163.48598 150.27317 165.05134 C 153.60952 166.98218 156.9423 168.93335 160.102 171.14556 C 163.13852 173.35722 165.82641 176.06034 167.93846 179.17177 C 169.27126 180.96384 170.50647 182.88155 172.23447 184.32475 C 173.19177 184.81127 174.49781 183.87697 174.30433 182.80729 C 174.21628 181.56771 173.38094 180.57631 172.92263 179.46301 C 171.24725 176.0463 169.57187 172.6296 167.89648 169.21289 C 168.73542 167.44728 171.13562 166.72091 172.84375 167.63086 C 174.41512 168.13137 176.18345 167.05395 176.67613 165.52622 C 177.64871 163.38914 177.52036 160.95115 177.11813 158.69326 C 176.2485 153.90254 174.0592 149.44497 171.33119 145.4481 C 167.53556 140.04082 162.36603 135.71824 156.72034 132.34775 C 150.28657 128.44525 143.05251 125.86464 135.59766 124.83398 L 135.57812 124.83984 z "
       style="fill:#000000;stroke-width:0.242749"
       id="path852" />
    <path
       class="side-a"
       d="M 175.61523 155.12305 C 174.98549 155.62541 174.60896 156.37725 174.34934 157.12764 C 173.78052 158.75516 173.41601 160.45066 172.76172 162.04883 C 171.86632 163.40485 170.54665 164.38739 169.38888 165.5021 C 168.39209 166.42105 167.36799 167.41476 166.91292 168.7265 C 166.38265 170.24199 166.54285 171.9228 167.09299 173.40906 C 167.74828 175.38454 168.56047 177.30279 169.27587 179.25648 C 169.82063 180.68856 170.36539 182.12065 170.91016 183.55273 C 171.45839 184.48719 172.03099 185.40714 172.57227 186.3457 C 172.82209 186.44617 173.12272 186.29191 173.2207 186.04883 C 174.02527 184.98382 175.11929 184.10098 175.60352 182.82227 C 177.21707 178.63226 178.48766 174.27268 178.90869 169.78845 C 179.30287 165.81724 178.72963 161.80541 177.65672 157.97974 C 177.4219 157.13591 177.18496 156.29257 176.92188 155.45703 C 176.71141 155.22614 176.36873 155.02497 176.05469 155.16211 C 175.90771 155.1533 175.76226 155.07303 175.61523 155.12305 z "
       style="fill:#000000;stroke-width:0.253182"
       id="path857" />
    <path
       class="side-b"
       inkscape:connector-curvature="0"
       id="path873"
       style="fill:#000000;stroke-width:0.243235"
       d="m 58.071677,201.03904 c -1.609843,0.64918 -2.662296,2.62825 -2.683694,4.60292 -0.236721,3.41519 0.439696,6.78325 0.952459,10.11969 0.893966,5.10828 2.675274,9.96515 5.027138,14.36546 0.761724,1.52039 1.568751,3.01001 2.443448,4.44318 0.430712,0.39568 1.065309,0.41088 1.526863,0.0801 -1.321552,-6.64782 -2.765515,-13.32264 -3.043821,-20.17383 -0.161291,-3.24523 -0.02145,-6.50521 0.335085,-9.72656 -0.08122,-1.26437 -1.002908,-2.20942 -1.96924,-2.58399 -0.808705,-0.41149 -1.619121,-0.81885 -2.441329,-1.1914 -0.04897,0.0215 -0.09794,0.043 -0.146909,0.0644 z" />
    <path
       class="side-b"
       d="M 62.953125 200.23633 C 60.678472 202.83494 59.807309 206.48698 60.335938 209.86719 C 60.617839 214.50781 60.89974 219.14844 61.181641 223.78906 C 61.755247 225.47873 61.743129 227.31969 61.380859 229.05273 C 61.980146 231.32939 62.870724 233.56901 64.310547 235.45117 C 64.927246 235.57258 65.533232 234.92291 65.378906 234.31641 C 65.610075 232.83094 65.70683 231.30025 66.277344 229.89258 C 67.658111 228.35294 68.067354 226.20286 68.051464 224.19279 C 68.030996 218.24671 67.09976 212.35788 66.289575 206.48205 C 65.960525 204.51904 65.509186 202.49017 64.312538 200.85542 C 63.988874 200.50211 63.589497 200.22914 63.175781 199.99219 C 63.101562 200.07357 63.027344 200.15495 62.953125 200.23633 z "
       style="fill:#000000;stroke-width:0.264583"
       id="path873-2" />
    <path
       class="side-b"
       d="M 68.548828 200.19727 C 66.018344 201.84158 64.883568 205.20654 65.660156 208.08594 C 66.549618 213.36224 67.659906 218.65488 67.561131 224.03263 C 67.397414 226.90841 66.432814 229.68293 65.089827 232.21221 C 64.581605 233.30808 64.214671 234.5814 64.601562 235.77344 C 65.131072 236.66713 66.672961 236.49845 67.033203 235.53711 C 68.380062 233.7059 70.04975 232.07736 70.986223 229.97346 C 72.076558 227.7603 73.156453 225.54187 74.235636 223.32333 C 74.708258 222.3112 75.173063 221.28319 75.464357 220.20371 C 75.586189 218.87239 74.848515 217.6847 74.221714 216.57337 C 73.014094 214.01904 72.909423 211.14564 72.678153 208.37894 C 72.480684 206.08145 72.17968 203.68047 70.911179 201.69624 C 70.387296 200.95603 69.655066 200.34107 68.787109 200.05273 C 68.707682 200.10091 68.628255 200.14909 68.548828 200.19727 z "
       style="fill:#000000;stroke-width:0.264583"
       id="path873-2-9" />
    <path
       class="side-b"
       inkscape:connector-curvature="0"
       d="m 68.787109,200.05273 c -0.07634,4.00987 -0.08882,10.04098 -0.03228,14.6157 0.02678,2.2569 0.0601,4.38269 0.101578,6.17727 0.03652,-0.1524 0.06625,-1.32145 0.08434,-2.64579 0.03046,-1.7259 0.07278,-3.0538 0.119829,-3.78466 0.0259,-0.40907 0.05337,-0.56304 0.08073,-0.63255 0.0865,-0.33276 0.1739,-0.0829 0.259198,0.60426 0.0036,0.23664 0.01368,-0.11207 0.0071,-0.26647 -0.06079,-1.24531 -0.123874,-2.2658 -0.186827,-3.28424 -0.08675,-1.40821 -0.174136,-2.8768 -0.251351,-5.1401 -0.06224,-1.76772 -0.12092,-3.75672 -0.181206,-5.64529 l -5.6e-4,-0.002 z"
       style="fill:#000000;stroke-width:0.0385232"
       id="path873-2-9-4" />
    <path
       class="side-b"
       inkscape:connector-curvature="0"
       id="path862"
       style="fill:#000000;stroke-width:0.310646"
       d="M 83.005859 214.02539 C 80.923119 214.66008 79.335613 216.23777 77.828082 217.73051 C 72.96946 222.53383 68.582927 227.80062 64.591797 233.3418 C 64.199132 234.9025 64.97946 236.55164 66.171875 237.55273 C 70.639181 241.85269 76.035015 245.03873 81.575153 247.75077 C 84.588616 249.16393 87.867665 250.25794 91.236328 250.11719 C 97.145338 249.91742 103.02777 248.72384 108.52483 246.54141 C 111.14826 245.40893 113.66549 243.78199 115.3158 241.40203 C 116.81862 239.09189 117.28259 236.29427 117.44223 233.59028 C 117.71782 230.04345 117.68902 226.41979 118.73656 222.98628 C 119.50555 220.91105 121.18087 219.38284 122.39001 217.58049 C 122.74024 216.66667 121.8008 215.66961 120.87489 215.76758 C 119.29022 215.78739 117.69527 215.72531 116.12571 215.99365 C 115.29818 216.09465 114.50096 216.35589 113.67911 216.47806 C 111.27134 216.7498 108.85551 216.28244 106.44336 216.45312 C 103.54112 216.52906 100.60779 216.7499 97.733426 216.21458 C 94.914385 215.78983 92.10058 215.33041 89.282972 214.89666 C 87.312198 214.5659 85.340998 214.23734 83.365234 213.9375 C 83.245443 213.9668 83.125651 213.99609 83.005859 214.02539 z " />
    <path
       class="side-b"
       id="path860"
       style="fill:#000000;stroke-width:0.273009"
       d="M 109.1875 245.79688 C 102.06584 246.17683 94.967302 247.25923 87.821166 246.97822 C 86.866602 246.84937 85.897688 246.73162 84.935547 246.84961 C 84.049005 247.4784 84.347134 249.09623 85.402344 249.36328 C 93.541726 253.24629 102.54338 255.13061 111.53075 255.42194 C 118.39691 255.74944 125.28344 255.30242 132.08504 254.3439 C 133.78825 254.11671 135.53954 253.97062 137.14033 253.30268 C 137.84755 252.95157 138.57247 252.32731 138.60924 251.48549 C 138.50454 250.79613 137.71581 250.37327 137.06445 250.5332 C 129.45664 249.3797 122.1364 246.70679 114.44736 246.02911 C 112.70012 245.85287 110.94328 245.78275 109.1875 245.79688 z " />
    <path
       class="side-b"
       d="M 122.22266 226.18945 C 119.09077 226.40864 116.16711 227.77226 113.55239 229.43711 C 111.04648 231.05604 108.69617 233.06139 107.17177 235.66073 C 106.26581 237.21007 106.13913 239.109 106.52181 240.83498 C 107.00794 243.06018 108.41184 245.07072 110.3537 246.26736 C 113.18997 248.22724 116.58883 249.11237 119.92931 249.76482 C 123.53354 250.48021 127.25181 250.62064 130.7793 251.70898 C 132.29303 252.44804 133.74515 253.51279 135.48828 253.58594 C 137.27766 253.62826 139.20877 253.09608 140.39648 251.68164 C 141.27885 250.54117 141.22356 248.96544 140.82103 247.64977 C 140.17198 245.63117 140.32352 243.43242 140.92961 241.42324 C 141.33134 239.69665 141.70573 237.83093 141.06621 236.11234 C 140.25055 233.88658 138.41065 232.21362 136.41981 231.02117 C 132.90402 228.79591 128.97799 227.21821 124.90269 226.38362 C 124.01717 226.24382 123.11939 226.17096 122.22266 226.18945 z "
       style="fill:#000000;stroke-width:0.264583"
       id="path861" />
    <path
       class="side-b"
       d="m 139.4445,223.72192 a 14.453372,7.1249018 0 0 1 -13.81303,7.11791 14.453372,7.1249018 0 0 1 -15.03698,-6.48721 14.453372,7.1249018 0 0 1 12.48065,-7.69272 14.453372,7.1249018 0 0 1 16.14285,5.80558"
       sodipodi:arc-type="arc"
       sodipodi:open="true"
       sodipodi:end="6.1059122"
       sodipodi:start="0"
       sodipodi:ry="7.1249018"
       sodipodi:rx="14.453372"
       sodipodi:cy="223.72192"
       sodipodi:cx="124.99113"
       sodipodi:type="arc"
       id="path866"
       style="fill:#000000;stroke-width:0.264583" />
    <path
       class="side-b"
       inkscape:transform-center-y="-6.7177646"
       inkscape:transform-center-x="7.1249019"
       style="fill:#000000;stroke-width:0.264583"
       id="path866-6"
       sodipodi:type="arc"
       sodipodi:cx="138.42667"
       sodipodi:cy="232.06824"
       sodipodi:rx="14.453372"
       sodipodi:ry="7.1249018"
       sodipodi:start="0"
       sodipodi:end="6.1059122"
       sodipodi:open="true"
       sodipodi:arc-type="arc"
       d="m 152.88004,232.06824 a 14.453372,7.1249018 0 0 1 -13.81303,7.1179 14.453372,7.1249018 0 0 1 -15.03698,-6.4872 14.453372,7.1249018 0 0 1 12.48065,-7.69272 14.453372,7.1249018 0 0 1 16.14285,5.80557" />
    <path
       class="side-b"
       transform="rotate(-18.772642)"
       d="m 70.806762,276.5209 a 14.453372,7.1249018 0 0 1 -13.813033,7.11791 14.453372,7.1249018 0 0 1 -15.036972,-6.48721 14.453372,7.1249018 0 0 1 12.480644,-7.69272 14.453372,7.1249018 0 0 1 16.142851,5.80558"
       sodipodi:arc-type="arc"
       sodipodi:open="true"
       sodipodi:end="6.1059122"
       sodipodi:start="0"
       sodipodi:ry="7.1249018"
       sodipodi:rx="14.453372"
       sodipodi:cy="276.5209"
       sodipodi:cx="56.35339"
       sodipodi:type="arc"
       id="path866-6-0"
       style="fill:#000000;stroke-width:0.264583"
       inkscape:transform-center-x="8.9077409"
       inkscape:transform-center-y="-4.0674971" />
    <path
       class="side-b"
       id="path866-6-0-6"
       style="fill:#000000;stroke-width:0.264583"
       inkscape:transform-center-x="9.5379486"
       inkscape:transform-center-y="-2.2180756"
       transform="rotate(-30.223666)"
       d="M 8.5371094 276.32031 C 5.2955336 276.42039 2.0626106 277.14099 -0.89262927 278.48251 C -1.6710188 278.858 -2.4835043 279.22727 -3.0624081 279.89268 C -4.8050468 281.73813 -5.9285792 284.06922 -7.6781994 285.90871 C -8.2628075 286.67163 -8.0770297 288.01146 -7.1199161 288.37995 C -6.1470942 288.82552 -5.0479647 288.76655 -4.0048623 288.85102 C -2.2299513 288.90465 -0.43062323 288.83829 1.3091743 289.2561 C 5.3800986 289.96028 9.5578904 290.38144 13.671819 289.80067 C 16.606895 289.34621 19.539603 288.33349 21.846678 286.4133 C 22.990874 285.40226 23.747285 283.7721 23.306641 282.24609 C 22.823609 280.51528 21.335651 279.27466 19.761713 278.53738 C 16.571939 276.96977 12.984186 276.39529 9.457334 276.32255 C 9.1506411 276.3148 8.8438555 276.32077 8.5371094 276.32031 z " />
    <path
       class="side-b"
       id="path866-6-0-6-5"
       style="fill:#000000;stroke-width:0.264583"
       inkscape:transform-center-x="9.7732125"
       inkscape:transform-center-y="-0.61364054"
       transform="rotate(-39.722455)"
       d="M 3.6816406 273.8457 C -0.34850435 274.69098 -4.3820641 275.59904 -8.4955672 275.92889 C -14.161432 276.45633 -19.841698 275.78772 -25.51515 275.8457 C -28.540434 275.85704 -31.600327 275.97304 -34.546875 276.71484 C -36.661348 277.29731 -38.741052 278.25725 -40.298314 279.83321 C -41.269883 281.26795 -40.615968 283.43661 -39.085841 284.1954 C -36.24434 285.97173 -33.02285 287.2404 -29.661431 287.49885 C -27.688219 287.67159 -25.703715 287.51548 -23.74952 287.22475 C -18.69663 286.61432 -13.638958 285.54094 -8.9999617 283.3917 C -6.7196031 282.28094 -4.4477563 281.14805 -2.2245006 279.92718 C -0.16989494 278.65095 1.7449578 277.13863 3.4313914 275.40407 C 3.7526026 275.04803 4.1402109 274.61572 4.0917969 274.10547 C 4.0275926 273.94377 3.8612981 273.81629 3.6816406 273.8457 z " />
    <path
       class="side-b"
       inkscape:transform-center-y="-0.61364054"
       inkscape:transform-center-x="9.7732125"
       style="fill:#000000;stroke-width:0.264583"
       id="path866-6-0-6-5-9"
       sodipodi:type="arc"
       sodipodi:cx="-24.393856"
       sodipodi:cy="271.13037"
       sodipodi:rx="14.453372"
       sodipodi:ry="7.1249018"
       sodipodi:start="0"
       sodipodi:end="6.1059122"
       sodipodi:open="true"
       sodipodi:arc-type="arc"
       d="m -9.940484,271.13037 a 14.453372,7.1249018 0 0 1 -13.813033,7.11791 14.453372,7.1249018 0 0 1 -15.036972,-6.48721 14.453372,7.1249018 0 0 1 12.480644,-7.69272 14.453372,7.1249018 0 0 1 16.142851,5.80557"
       transform="rotate(-39.722456)" />
    <path
       class="side-b"
       d="M -52.341797 238.28125 C -50.645122 241.06314 -48.0596 243.12063 -45.575808 245.16248 C -43.109198 247.19857 -40.885994 249.53996 -39.052734 252.16406 C -38.518234 254.68077 -38.958144 257.26967 -39.53125 259.73828 C -39.860162 262.33895 -37.949208 264.95579 -35.421875 265.55859 C -29.914968 267.51037 -23.711481 267.68948 -18.201171 265.65395 C -16.842164 265.11338 -15.383639 264.56517 -14.444718 263.38194 C -13.723906 262.5384 -13.188204 261.53589 -12.896484 260.46484 C -13.078649 258.35141 -14.810967 256.50945 -16.884766 256.12305 C -25.41288 252.54712 -34.06037 249.11495 -41.985928 244.29674 C -45.467861 242.1803 -48.949731 240.06375 -52.431641 237.94727 C -52.401693 238.05859 -52.371745 238.16992 -52.341797 238.28125 z "
       transform="rotate(-39.722456)"
       inkscape:transform-center-y="-0.61364054"
       inkscape:transform-center-x="9.7732125"
       style="fill:#000000;stroke-width:0.264583"
       id="path866-6-0-6-5-9-4" />
    <path
       class="side-b"
       inkscape:connector-curvature="0"
       id="path866-6-0-6-5-9-4-9"
       style="fill:#000000;stroke-width:0.264583"
       inkscape:transform-center-x="9.7732125"
       inkscape:transform-center-y="-0.61364054"
       d="m 133.88661,213.08725 c 3.08282,1.0554 6.38635,0.98559 9.60164,0.96876 3.19839,-0.0103 6.40468,0.36982 9.49171,1.21656 2.01947,1.59415 3.3356,3.86653 4.4724,6.13151 1.40903,2.2105 4.55118,3.00201 6.88031,1.85051 5.48295,-2.01808 10.36882,-5.84478 13.30625,-10.93184 0.69982,-1.28428 1.4713,-2.63804 1.43731,-4.14815 0.0153,-1.10946 -0.21331,-2.22289 -0.67341,-3.23311 -1.49074,-1.50913 -4.00029,-1.8188 -5.84229,-0.7907 -8.84466,2.69963 -17.68926,5.58613 -26.86437,6.94519 -4.03068,0.59733 -8.06137,1.19455 -12.09206,1.79184 0.0942,0.0665 0.18836,0.13297 0.28254,0.19947 z" />
    <path
       class="side-b"
       d="M 174.86133 185.04492 C 173.38577 185.6543 172.48931 187.08806 171.85352 188.48242 C 170.67634 191.03594 168.52135 192.92103 166.83008 195.11523 C 163.72235 198.27735 159.86297 200.53032 156.11024 202.82825 C 150.56921 206.12667 144.81032 209.03514 139.09961 212.02344 C 138.81487 211.99389 138.56813 212.45365 138.85938 212.61133 C 139.53433 212.60909 140.17466 212.35556 140.83849 212.26359 C 145.79137 211.22832 150.6963 209.94785 155.69922 209.16406 C 158.0557 209.32914 160.16009 210.58781 161.97461 212.01758 C 163.35331 213.06407 164.92205 214.07446 166.71094 214.10742 C 168.81893 214.02137 170.7044 212.81257 172.13867 211.33789 C 175.93245 207.58997 178.73757 202.72832 179.60054 197.43063 C 179.85295 195.8686 179.65224 194.21291 178.87264 192.8209 C 178.41428 191.88963 177.7359 191.08663 177.25195 190.17305 C 176.5768 188.57826 176.57186 186.69631 175.44963 185.30175 C 175.32547 185.10642 175.08419 185.02421 174.86133 185.04492 z "
       inkscape:transform-center-y="-1.2997954"
       inkscape:transform-center-x="10.321818"
       style="fill:#000000;stroke-width:0.264583"
       id="path866-6-0-6-5-9-4-9-0"
       inkscape:connector-curvature="0" />
    <path
       class="side-b"
       d="M 177.78906 178.3125 C 176.22559 180.29472 174.91118 182.49031 173.99657 184.84587 C 173.30505 187.714 173.01537 190.66438 172.87498 193.60603 C 172.80017 198.22018 173.89973 202.75291 175.24509 207.13557 C 175.99983 209.67709 176.5704 212.33074 176.33286 214.996 C 176.3247 215.56237 176.23189 216.14808 176.31251 216.70327 C 176.62861 217.20585 177.52987 216.92101 177.52267 216.33092 C 179.56722 209.96101 181.75614 203.57355 182.58398 196.9043 C 183.13899 192.60754 182.30582 188.2534 180.90875 184.19232 C 180.25344 182.24489 179.71058 180.23557 178.71469 178.42647 C 178.56388 178.21284 178.3614 178.01402 178.09961 177.95117 C 177.99609 178.07161 177.89258 178.19206 177.78906 178.3125 z "
       style="fill:#000000;stroke-width:0.278022"
       id="path913" />
    <path
       class="side-b"
       d="M 179.10352 166.74023 C 178.55652 169.55956 178.78762 172.53519 177.70813 175.24254 C 177.02689 177.03296 176.19387 178.88549 176.38803 180.84836 C 176.70406 183.69771 177.99913 186.30562 178.63248 189.08117 C 179.04436 190.52213 179.55432 192.07185 180.78873 193.02225 C 181.23913 193.32402 181.94044 193.19423 182.16627 192.67298 C 182.75512 191.75789 182.55992 190.62298 182.62039 189.59364 C 182.67632 183.16929 182.36636 176.66963 180.69215 170.43629 C 180.3317 169.21775 180.02628 167.96612 179.47467 166.8186 C 179.37983 166.64752 179.12041 166.31223 179.10352 166.74023 z "
       style="fill:#000000;stroke-width:0.264583"
       id="path916" />
    <path
       class="side-b"
       transform="rotate(-8.5067352)"
       d="m 42.029434,218.18121 a 4.8856468,9.9748621 0 0 1 -4.669194,9.96507 4.8856468,9.9748621 0 0 1 -5.08292,-9.08209 4.8856468,9.9748621 0 0 1 4.218809,-10.76981 4.8856468,9.9748621 0 0 1 5.456738,8.12781"
       sodipodi:arc-type="arc"
       sodipodi:open="true"
       sodipodi:end="6.1059122"
       sodipodi:start="0"
       sodipodi:ry="9.9748621"
       sodipodi:rx="4.8856468"
       sodipodi:cy="218.18121"
       sodipodi:cx="37.143787"
       sodipodi:type="arc"
       id="path921"
       style="fill:#000000;stroke-width:0.264583" />
    <path
       class="side-b"
       d="M 71.474609 202.33203 C 70.304693 203.39416 69.974409 205.01711 69.699632 206.5034 C 69.140694 209.59724 68.649511 212.76847 67.22813 215.60936 C 66.452786 217.42861 66.459633 219.68952 67.659882 221.32803 C 69.372245 223.9058 72.912769 224.98323 75.806886 223.96004 C 78.201726 223.23649 80.173227 221.55214 81.748217 219.65835 C 82.846255 218.46306 84.448276 217.88422 85.544922 216.69141 C 86.002018 216.13143 86.134511 215.26795 85.660156 214.67578 C 85.302686 214.16666 84.67602 213.97521 84.093598 213.8762 C 81.699452 213.08015 79.17802 212.38316 77.178359 210.77277 C 74.980157 208.65112 73.763463 205.79793 72.232842 203.20842 C 72.035427 202.91914 71.867932 202.56909 71.615186 202.34178 C 71.570219 202.32722 71.521177 202.32043 71.474609 202.33203 z "
       style="fill:#000000;stroke-width:0.264583"
       id="path924" />
  </g>
</svg>
